<svg width="4" height="15" viewBox="0 0 4 15" fill="none" xmlns="http://www.w3.org/2000/svg">
<path d="M1.63332 8.3C2.09356 8.3 2.46665 7.92691 2.46665 7.46667C2.46665 7.00643 2.09356 6.63334 1.63332 6.63334C1.17308 6.63334 0.799988 7.00643 0.799988 7.46667C0.799988 7.92691 1.17308 8.3 1.63332 8.3Z" stroke="#1E1E1E" stroke-width="1.6" stroke-linecap="round" stroke-linejoin="round"/>
<path d="M1.63332 2.46667C2.09356 2.46667 2.46665 2.09357 2.46665 1.63334C2.46665 1.1731 2.09356 0.800003 1.63332 0.800003C1.17308 0.800003 0.799988 1.1731 0.799988 1.63334C0.799988 2.09357 1.17308 2.46667 1.63332 2.46667Z" stroke="#1E1E1E" stroke-width="1.6" stroke-linecap="round" stroke-linejoin="round"/>
<path d="M1.63332 14.1333C2.09356 14.1333 2.46665 13.7602 2.46665 13.3C2.46665 12.8398 2.09356 12.4667 1.63332 12.4667C1.17308 12.4667 0.799988 12.8398 0.799988 13.3C0.799988 13.7602 1.17308 14.1333 1.63332 14.1333Z" stroke="#1E1E1E" stroke-width="1.6" stroke-linecap="round" stroke-linejoin="round"/>
</svg>
